<mxfile host="app.diagrams.net" agent="Mozilla/5.0 (Windows NT 10.0; Win64; x64) AppleWebKit/537.36 (KHTML, like Gecko) Chrome/135.0.0.0 Safari/537.36" version="26.2.9">
  <diagram name="Sivu-1" id="e7OKqU6CDIMyIQW7n4Tl">
    <mxGraphModel dx="788" dy="417" grid="1" gridSize="10" guides="1" tooltips="1" connect="1" arrows="1" fold="1" page="1" pageScale="1" pageWidth="827" pageHeight="1169" math="0" shadow="0">
      <root>
        <mxCell id="0" />
        <mxCell id="1" parent="0" />
        <mxCell id="zH6NclmlB-zeNHZAARES-1" value="Ratsastaja" style="rounded=0;whiteSpace=wrap;html=1;" vertex="1" parent="1">
          <mxGeometry x="180" y="260" width="160" height="40" as="geometry" />
        </mxCell>
        <mxCell id="zH6NclmlB-zeNHZAARES-2" value="Nimi" style="ellipse;whiteSpace=wrap;html=1;" vertex="1" parent="1">
          <mxGeometry x="60" y="160" width="120" height="80" as="geometry" />
        </mxCell>
        <mxCell id="zH6NclmlB-zeNHZAARES-3" value="RatsastajaID" style="ellipse;whiteSpace=wrap;html=1;" vertex="1" parent="1">
          <mxGeometry x="200" y="160" width="120" height="80" as="geometry" />
        </mxCell>
        <mxCell id="zH6NclmlB-zeNHZAARES-4" value="Email" style="ellipse;whiteSpace=wrap;html=1;" vertex="1" parent="1">
          <mxGeometry x="40" y="260" width="120" height="80" as="geometry" />
        </mxCell>
        <mxCell id="zH6NclmlB-zeNHZAARES-5" value="SyntymÃ¤aika" style="ellipse;whiteSpace=wrap;html=1;" vertex="1" parent="1">
          <mxGeometry x="140" y="330" width="120" height="80" as="geometry" />
        </mxCell>
        <mxCell id="zH6NclmlB-zeNHZAARES-7" value="" style="endArrow=none;html=1;rounded=0;entryX=0.633;entryY=1;entryDx=0;entryDy=0;entryPerimeter=0;" edge="1" parent="1" source="zH6NclmlB-zeNHZAARES-5" target="zH6NclmlB-zeNHZAARES-1">
          <mxGeometry width="50" height="50" relative="1" as="geometry">
            <mxPoint x="220" y="340" as="sourcePoint" />
            <mxPoint x="270" y="290" as="targetPoint" />
            <Array as="points">
              <mxPoint x="260" y="310" />
            </Array>
          </mxGeometry>
        </mxCell>
        <mxCell id="zH6NclmlB-zeNHZAARES-8" value="" style="endArrow=none;html=1;rounded=0;exitX=1;exitY=0;exitDx=0;exitDy=0;" edge="1" parent="1" source="zH6NclmlB-zeNHZAARES-4">
          <mxGeometry width="50" height="50" relative="1" as="geometry">
            <mxPoint x="130" y="310" as="sourcePoint" />
            <mxPoint x="180" y="260" as="targetPoint" />
          </mxGeometry>
        </mxCell>
        <mxCell id="zH6NclmlB-zeNHZAARES-9" value="" style="endArrow=none;html=1;rounded=0;entryX=0.5;entryY=1;entryDx=0;entryDy=0;" edge="1" parent="1" source="zH6NclmlB-zeNHZAARES-1" target="zH6NclmlB-zeNHZAARES-3">
          <mxGeometry width="50" height="50" relative="1" as="geometry">
            <mxPoint x="230" y="150" as="sourcePoint" />
            <mxPoint x="280" y="100" as="targetPoint" />
          </mxGeometry>
        </mxCell>
        <mxCell id="zH6NclmlB-zeNHZAARES-11" value="" style="endArrow=none;html=1;rounded=0;entryX=0.15;entryY=-0.017;entryDx=0;entryDy=0;entryPerimeter=0;exitX=0.911;exitY=0.825;exitDx=0;exitDy=0;exitPerimeter=0;" edge="1" parent="1" source="zH6NclmlB-zeNHZAARES-2" target="zH6NclmlB-zeNHZAARES-1">
          <mxGeometry width="50" height="50" relative="1" as="geometry">
            <mxPoint x="180" y="90" as="sourcePoint" />
            <mxPoint x="210" y="114" as="targetPoint" />
          </mxGeometry>
        </mxCell>
        <mxCell id="zH6NclmlB-zeNHZAARES-12" value="Kilpailut" style="rounded=0;whiteSpace=wrap;html=1;" vertex="1" parent="1">
          <mxGeometry x="540" y="260" width="140" height="40" as="geometry" />
        </mxCell>
        <mxCell id="zH6NclmlB-zeNHZAARES-13" value="KilpailuID" style="ellipse;whiteSpace=wrap;html=1;" vertex="1" parent="1">
          <mxGeometry x="550" y="150" width="120" height="80" as="geometry" />
        </mxCell>
        <mxCell id="zH6NclmlB-zeNHZAARES-14" value="Luokan taso" style="ellipse;whiteSpace=wrap;html=1;" vertex="1" parent="1">
          <mxGeometry x="690" y="190" width="120" height="80" as="geometry" />
        </mxCell>
        <mxCell id="zH6NclmlB-zeNHZAARES-15" value="Nimi" style="ellipse;whiteSpace=wrap;html=1;" vertex="1" parent="1">
          <mxGeometry x="670" y="310" width="120" height="80" as="geometry" />
        </mxCell>
        <mxCell id="zH6NclmlB-zeNHZAARES-16" value="Kilpailee" style="shape=hexagon;perimeter=hexagonPerimeter2;whiteSpace=wrap;html=1;fixedSize=1;" vertex="1" parent="1">
          <mxGeometry x="400" y="260" width="100" height="40" as="geometry" />
        </mxCell>
        <mxCell id="zH6NclmlB-zeNHZAARES-17" value="" style="endArrow=none;html=1;rounded=0;exitX=1;exitY=0.5;exitDx=0;exitDy=0;entryX=0;entryY=0.5;entryDx=0;entryDy=0;" edge="1" parent="1" source="zH6NclmlB-zeNHZAARES-1" target="zH6NclmlB-zeNHZAARES-16">
          <mxGeometry width="50" height="50" relative="1" as="geometry">
            <mxPoint x="360" y="190" as="sourcePoint" />
            <mxPoint x="410" y="140" as="targetPoint" />
          </mxGeometry>
        </mxCell>
        <mxCell id="zH6NclmlB-zeNHZAARES-20" value="" style="endArrow=none;html=1;rounded=0;entryX=0;entryY=0.5;entryDx=0;entryDy=0;exitX=1;exitY=0.5;exitDx=0;exitDy=0;" edge="1" parent="1" source="zH6NclmlB-zeNHZAARES-16" target="zH6NclmlB-zeNHZAARES-12">
          <mxGeometry width="50" height="50" relative="1" as="geometry">
            <mxPoint x="510" y="140" as="sourcePoint" />
            <mxPoint x="560" y="90" as="targetPoint" />
          </mxGeometry>
        </mxCell>
        <mxCell id="zH6NclmlB-zeNHZAARES-21" value="" style="endArrow=none;html=1;rounded=0;exitX=0.25;exitY=0;exitDx=0;exitDy=0;entryX=0.256;entryY=0.942;entryDx=0;entryDy=0;entryPerimeter=0;" edge="1" parent="1" source="zH6NclmlB-zeNHZAARES-12" target="zH6NclmlB-zeNHZAARES-13">
          <mxGeometry width="50" height="50" relative="1" as="geometry">
            <mxPoint x="540" y="130" as="sourcePoint" />
            <mxPoint x="590" y="80" as="targetPoint" />
          </mxGeometry>
        </mxCell>
        <mxCell id="zH6NclmlB-zeNHZAARES-22" value="" style="endArrow=none;html=1;rounded=0;exitX=0.75;exitY=0;exitDx=0;exitDy=0;entryX=-0.022;entryY=0.592;entryDx=0;entryDy=0;entryPerimeter=0;" edge="1" parent="1" source="zH6NclmlB-zeNHZAARES-12" target="zH6NclmlB-zeNHZAARES-14">
          <mxGeometry width="50" height="50" relative="1" as="geometry">
            <mxPoint x="650" y="140" as="sourcePoint" />
            <mxPoint x="700" y="90" as="targetPoint" />
          </mxGeometry>
        </mxCell>
        <mxCell id="zH6NclmlB-zeNHZAARES-23" value="" style="endArrow=none;html=1;rounded=0;exitX=0.686;exitY=1.017;exitDx=0;exitDy=0;exitPerimeter=0;entryX=0.044;entryY=0.208;entryDx=0;entryDy=0;entryPerimeter=0;" edge="1" parent="1" source="zH6NclmlB-zeNHZAARES-12" target="zH6NclmlB-zeNHZAARES-15">
          <mxGeometry width="50" height="50" relative="1" as="geometry">
            <mxPoint x="640" y="240" as="sourcePoint" />
            <mxPoint x="690" y="190" as="targetPoint" />
          </mxGeometry>
        </mxCell>
        <mxCell id="zH6NclmlB-zeNHZAARES-24" value="Ilmoittautuminen" style="shape=process;whiteSpace=wrap;html=1;backgroundOutline=1;" vertex="1" parent="1">
          <mxGeometry x="380" y="120" width="120" height="30" as="geometry" />
        </mxCell>
        <mxCell id="zH6NclmlB-zeNHZAARES-25" value="IlmoID" style="ellipse;whiteSpace=wrap;html=1;" vertex="1" parent="1">
          <mxGeometry x="270" y="70" width="110" height="50" as="geometry" />
        </mxCell>
        <mxCell id="zH6NclmlB-zeNHZAARES-26" value="Ilmoittautumispv" style="ellipse;whiteSpace=wrap;html=1;" vertex="1" parent="1">
          <mxGeometry x="380" y="45" width="120" height="45" as="geometry" />
        </mxCell>
        <mxCell id="zH6NclmlB-zeNHZAARES-27" value="Tulos" style="ellipse;whiteSpace=wrap;html=1;" vertex="1" parent="1">
          <mxGeometry x="500" y="70" width="120" height="45" as="geometry" />
        </mxCell>
        <mxCell id="zH6NclmlB-zeNHZAARES-28" value="Ilmoittautuu" style="shape=rhombus;double=1;perimeter=rhombusPerimeter;whiteSpace=wrap;html=1;align=center;" vertex="1" parent="1">
          <mxGeometry x="340" y="180" width="90" height="50" as="geometry" />
        </mxCell>
        <mxCell id="zH6NclmlB-zeNHZAARES-29" value="" style="endArrow=none;html=1;rounded=0;entryX=0.879;entryY=0;entryDx=0;entryDy=0;entryPerimeter=0;exitX=0;exitY=1;exitDx=0;exitDy=0;" edge="1" parent="1" source="zH6NclmlB-zeNHZAARES-28" target="zH6NclmlB-zeNHZAARES-1">
          <mxGeometry relative="1" as="geometry">
            <mxPoint x="360" y="220" as="sourcePoint" />
            <mxPoint x="520" y="220" as="targetPoint" />
          </mxGeometry>
        </mxCell>
        <mxCell id="zH6NclmlB-zeNHZAARES-30" value="" style="endArrow=none;html=1;rounded=0;entryX=0.617;entryY=0.933;entryDx=0;entryDy=0;entryPerimeter=0;exitX=1;exitY=0;exitDx=0;exitDy=0;" edge="1" parent="1" source="zH6NclmlB-zeNHZAARES-28" target="zH6NclmlB-zeNHZAARES-24">
          <mxGeometry relative="1" as="geometry">
            <mxPoint x="360" y="220" as="sourcePoint" />
            <mxPoint x="520" y="220" as="targetPoint" />
          </mxGeometry>
        </mxCell>
        <mxCell id="zH6NclmlB-zeNHZAARES-31" value="" style="endArrow=none;html=1;rounded=0;exitX=0.745;exitY=1;exitDx=0;exitDy=0;exitPerimeter=0;entryX=0;entryY=0.75;entryDx=0;entryDy=0;" edge="1" parent="1" source="zH6NclmlB-zeNHZAARES-25" target="zH6NclmlB-zeNHZAARES-24">
          <mxGeometry relative="1" as="geometry">
            <mxPoint x="360" y="220" as="sourcePoint" />
            <mxPoint x="520" y="220" as="targetPoint" />
          </mxGeometry>
        </mxCell>
        <mxCell id="zH6NclmlB-zeNHZAARES-35" value="" style="endArrow=none;html=1;rounded=0;entryX=0.5;entryY=1;entryDx=0;entryDy=0;exitX=0.5;exitY=0;exitDx=0;exitDy=0;" edge="1" parent="1" source="zH6NclmlB-zeNHZAARES-24" target="zH6NclmlB-zeNHZAARES-26">
          <mxGeometry relative="1" as="geometry">
            <mxPoint x="360" y="220" as="sourcePoint" />
            <mxPoint x="520" y="220" as="targetPoint" />
          </mxGeometry>
        </mxCell>
        <mxCell id="zH6NclmlB-zeNHZAARES-36" value="" style="endArrow=none;html=1;rounded=0;entryX=0;entryY=1;entryDx=0;entryDy=0;exitX=0.911;exitY=-0.044;exitDx=0;exitDy=0;exitPerimeter=0;" edge="1" parent="1" source="zH6NclmlB-zeNHZAARES-24" target="zH6NclmlB-zeNHZAARES-27">
          <mxGeometry relative="1" as="geometry">
            <mxPoint x="360" y="220" as="sourcePoint" />
            <mxPoint x="520" y="220" as="targetPoint" />
          </mxGeometry>
        </mxCell>
      </root>
    </mxGraphModel>
  </diagram>
</mxfile>
